<svg xmlns="http://www.w3.org/2000/svg" width="544.736" height="549.54"><g opacity=".2" fill="none" stroke="#020305" stroke-linecap="round" stroke-linejoin="round" data-name="Group 1189"><path data-name="Path 4139" d="M421.507 72.464c10.814 8.663 18.713 19.59 20.855 33.527 4.204 27.285-16.724 53.963-11.956 81.155 6.772 38.596 59.015 53.362 71.67 90.45 8.93 26.183-5.787 55.744-27.748 72.569-24.733 18.953-61.304 18.034-82.371 39.868-24.646 25.549-10.373 74.428-40.493 94.303-17.225 11.369-41.665 3.213-55.51-12.094s-19.984-35.832-26.9-55.277c-8.979-25.238-16.106-46.508-45.444-53.529-20.143-4.82-41.254-1.882-61.92-3.326a147.524 147.524 0 01-97.236-46.79c-19.772-21.504-32.147-56.639-13.284-78.945 11.287-13.344 30.204-17.395 47.683-17.494 33.303-.185 71.523 5.571 98.031-20.77 22.632-22.49 14.22-58.19 21.777-87.018 6.521-24.884 20.719-48.853 43.108-61.521 31.73-17.955 71.319-9.74 106.382.245 18.468 5.26 38.626 12.852 53.356 24.647z" stroke-dasharray="0 2"/><path data-name="Path 4140" d="M414.462 78.437c10.204 8.24 17.686 18.583 19.889 31.7 3.095 18.355-5.571 36.504-9.197 54.774-1.455 7.317-2.101 14.653-.847 22.032 6.207 36.556 54.672 51.125 64.047 86.521 3.557 13.43 1.19 26.516-3.136 40.014a74.256 74.256 0 01-22.066 34.046c-21.329 18.402-54.05 19.517-75.175 36.787q-1.772 1.447-3.43 3.045c-24.451 23.65-13.718 67.268-42.896 86.481-16.597 10.933-39.403 4.524-52.688-8.523s-19.874-30.892-27.213-48.694c-8.662-20.951-15.336-40.144-36.234-49.409a59.153 59.153 0 00-6.945-2.567c-18.239-5.523-37.13-3.96-56.032-6.435-33.658-4.403-67.454-21.8-92.1-47.418-10.156-10.554-19.192-23.64-23.307-37.813-4.464-15.52-2.4-32.153 8.513-43.741 11.525-12.238 29.444-15.895 46.297-15.579 27.578.519 58.417 5.429 83.12-9.1a61.68 61.68 0 0011.635-8.86c22.005-21.291 15.276-55.542 23.225-83.109 6.78-23.511 20.63-45.987 42.076-57.925 30.442-16.933 68.213-9.553 101.637.009 17.662 5.055 36.785 12.407 50.827 23.764z" stroke-width="1.001" stroke-dasharray="0 2.001"/><path data-name="Path 4141" d="M407.415 84.414c9.591 7.811 16.666 17.574 18.929 29.866 3.19 17.24-4.34 34.372-7.467 51.649a60.652 60.652 0 00-.668 20.808c5.649 34.519 50.057 49.104 56.431 82.597 2.643 13.891-.67 26.018-4.014 40.302-3.138 13.418-8.435 25.327-18.643 35.243-19.28 18.724-50.633 20.957-71.454 36.985q-1.744 1.343-3.387 2.813c-24.253 21.749-17.066 60.106-45.301 78.659-15.97 10.494-37.136 5.836-49.864-4.951s-19.764-25.956-27.526-42.114c-9.186-19.02-15.92-37.795-34.68-47.617a56.127 56.127 0 00-6.233-2.807c-16.33-6.222-33.01-6.038-50.144-9.542-30.572-6.247-62.686-23.878-86.968-48.048-10.957-10.906-21.296-23.82-26.019-38.671-5.038-16.062-2.24-34.049 9.717-45.492 11.68-11.174 28.686-14.393 44.914-13.663 26.557 1.202 56.032 6.8 80.119-6.791a58.639 58.639 0 0011.36-8.355c21.379-20.094 16.327-52.9 24.675-79.2 7.028-22.134 20.537-43.122 41.037-54.327 29.155-15.915 65.104-9.362 96.892-.227 16.855 4.846 34.943 11.959 48.294 22.883z" stroke-width="1.001" stroke-dasharray="0 2.003"/><path data-name="Path 4142" d="M400.368 90.388c8.976 7.385 15.646 16.566 17.964 28.036 3.287 16.12-3.104 32.237-5.74 48.525a61.67 61.67 0 00-.485 19.583c5.085 32.48 45.136 47.261 48.815 78.67 1.694 14.429-2.562 25.499-4.89 40.587-2.113 13.694-5.418 25.709-15.225 36.442-17.293 18.92-47.216 22.4-67.728 37.185q-1.718 1.238-3.354 2.583c-24.052 19.848-20.408 52.944-47.707 70.835-15.338 10.059-34.868 7.148-47.036-1.381s-19.657-21.016-27.842-35.536c-9.71-17.092-16.508-35.46-33.129-45.824a55.666 55.666 0 00-5.52-3.049c-14.444-6.883-28.892-8.12-44.253-12.646-27.498-8.1-57.984-25.897-81.833-48.677-11.778-11.25-23.44-23.994-28.734-39.534-5.649-16.589-2.135-35.96 10.923-47.24 11.759-10.155 27.928-12.89 43.529-11.746 25.54 1.883 53.647 8.173 77.12-4.483a55.774 55.774 0 0011.083-7.849c20.755-18.898 17.367-50.255 26.127-75.29 7.262-20.76 20.443-40.255 40.006-50.73 27.866-14.897 62-9.176 92.147-.466 16.045 4.644 33.102 11.517 45.762 22.005z" stroke-width="1.002" stroke-dasharray="0 2.004"/><path data-name="Path 4143" d="M393.323 96.364c8.346 6.978 14.628 15.554 17 26.205 3.387 15.001-1.87 30.102-4.01 45.399a63.626 63.626 0 00-.304 18.361c4.529 30.44 39.89 45.556 41.194 74.74.674 15.048-4.49 24.966-5.765 40.88-1.119 13.95-2.415 26.036-11.801 37.644-15.376 18.998-43.8 23.84-64.004 37.383q-1.697 1.134-3.315 2.35c-23.86 17.95-23.76 45.78-50.111 63.012a44.351 44.351 0 01-44.215 2.192c-11.608-6.27-19.518-16.097-28.155-28.954-10.204-15.185-17.104-33.141-31.582-44.029a56.898 56.898 0 00-4.806-3.29c-12.545-7.573-24.785-10.21-38.363-15.747-24.436-9.973-53.342-27.869-76.7-49.308-12.614-11.575-25.55-24.175-31.447-40.393-6.228-17.126-2.086-37.903 12.13-48.99 11.778-9.185 27.17-11.39 42.146-9.83 24.524 2.564 51.263 9.543 74.122-2.176a52.77 52.77 0 0010.8-7.348c20.131-17.698 18.402-47.61 27.578-71.385 7.487-19.385 20.352-37.39 38.974-47.133 26.574-13.877 58.89-8.984 87.398-.7 15.243 4.433 31.243 11.091 43.236 21.117z" stroke-width="1.003" stroke-dasharray="0 2.005"/><path data-name="Path 4144" d="M386.275 102.34c7.733 6.555 13.605 14.547 16.037 24.374 3.483 13.883-.643 27.97-2.28 42.273a67.054 67.054 0 00-.124 17.139c3.97 28.397 34.329 43.93 33.578 70.813-.44 15.715-6.452 24.422-6.642 41.167-.16 14.205.549 26.317-8.382 38.837-13.548 18.986-40.38 25.282-60.28 37.581a91.352 91.352 0 00-3.275 2.12c-23.66 16.05-27.1 38.621-52.517 55.188-14.078 9.185-30.338 9.775-41.389 5.765s-19.408-11.166-28.468-22.375c-10.723-13.26-17.692-30.844-30.027-42.242-1.314-1.215-2.655-2.41-4.093-3.526-10.652-8.273-20.682-12.317-32.472-18.857-21.387-11.862-48.74-29.8-71.567-49.936-13.471-11.884-27.654-24.36-34.161-41.252-6.8-17.667-2.08-39.893 13.333-50.736 11.747-8.267 26.41-9.89 40.759-7.918 23.513 3.245 48.879 10.917 71.125.13a49.965 49.965 0 0010.522-6.835c19.506-16.5 19.413-44.966 29.032-67.47 7.7-18.011 20.253-34.527 37.938-43.535 25.287-12.86 55.786-8.798 82.656-.94 14.43 4.225 29.391 10.649 40.697 20.234z" stroke-width="1.003" stroke-dasharray="0 2.007"/><path data-name="Path 4145" d="M379.234 108.314c7.115 6.13 12.582 13.54 15.07 22.542 3.58 12.765.588 25.832-.549 39.147a73.114 73.114 0 00.058 15.917c3.404 26.359 28.473 42.338 25.955 66.886-1.68 16.404-8.452 23.883-7.517 41.454.77 14.46 3.46 26.555-4.962 40.035-11.801 18.896-36.963 26.726-56.553 37.781a137.605 137.605 0 00-3.239 1.884c-23.46 14.152-30.446 31.46-54.92 47.367-13.45 8.75-28.073 11.089-38.565 9.336s-19.3-6.23-28.782-15.787c-11.248-11.34-18.279-28.574-28.475-40.455-1.102-1.284-2.202-2.556-3.382-3.765-8.752-8.975-16.575-14.44-26.582-21.963-18.333-13.785-44.171-31.681-66.434-50.563-14.343-12.173-29.76-24.543-36.874-42.114-7.367-18.21-2.12-41.94 14.539-52.484 11.684-7.398 25.652-8.39 39.374-6.002 22.498 3.926 46.493 12.282 68.127 2.437a47.438 47.438 0 0010.244-6.328c18.879-15.303 20.407-42.327 30.486-63.56 7.896-16.648 20.167-31.66 36.905-39.94 23.997-11.84 52.68-8.608 77.907-1.177 13.62 4.016 27.543 10.203 38.17 19.352z" stroke-width="1.004" stroke-dasharray="0 2.008"/><path data-name="Path 4146" d="M372.183 114.29c6.5 5.704 11.541 12.535 14.107 20.714 3.652 11.653 1.823 23.7 1.18 36.018a85.225 85.225 0 00.24 14.695c2.845 24.32 22.365 40.721 18.338 62.958-3.09 17.076-10.484 23.351-8.395 41.744 1.67 14.722 6.3 26.75-1.54 41.23-10.154 18.757-33.545 28.168-52.83 37.98-1.08.549-2.148 1.094-3.203 1.651-23.26 12.251-33.79 24.299-57.322 39.545-12.822 8.312-25.809 12.4-35.74 12.907s-19.193-1.296-29.1-9.212c-11.775-9.411-18.842-26.327-26.923-38.663-.89-1.357-1.751-2.705-2.669-4.004a193.286 193.286 0 00-20.693-25.07c-15.266-15.745-39.639-33.53-61.298-51.192-15.247-12.431-31.865-24.728-39.589-42.972-7.938-18.749-2.203-44.061 15.744-54.233 11.59-6.571 24.891-6.89 37.99-4.087 21.48 4.608 44.11 13.657 65.128 4.746a44.961 44.961 0 009.967-5.822c18.251-14.11 21.384-39.696 31.931-59.65 8.08-15.287 20.077-28.797 35.87-36.344 22.711-10.822 49.576-8.42 73.166-1.413 12.819 3.813 25.71 9.76 35.641 18.473z" stroke-width="1.005" stroke-dasharray="0 2.009"/><path data-name="Path 4147" d="M365.135 120.266a46.287 46.287 0 0113.14 18.884c3.75 10.534 3.054 21.565 2.908 32.893a114.286 114.286 0 00.421 13.47c2.286 22.281 16.05 39.027 10.722 59.033-4.712 17.68-12.547 22.83-9.271 42.03 2.556 14.991 9.053 26.916 1.879 42.432-8.594 18.584-30.127 29.608-49.106 38.18q-1.591.716-3.16 1.418c-23.067 10.35-37.135 17.132-59.73 31.72-12.193 7.877-23.543 13.712-32.916 16.48s-19.094 3.642-29.413-2.633c-12.306-7.481-19.377-24.096-25.37-36.872-.671-1.43-1.297-2.856-1.955-4.239-4.946-10.4-8.332-18.738-14.803-28.176-12.162-17.731-35.125-35.345-56.165-51.822-16.165-12.66-33.932-24.928-42.298-43.833-8.473-19.307-2.32-46.265 16.949-55.983 11.481-5.791 24.13-5.388 36.607-2.171 20.464 5.29 41.72 15.031 62.13 7.054a42.596 42.596 0 009.688-5.318c17.626-12.906 22.338-37.074 33.382-55.739 8.242-13.933 19.983-25.928 34.838-32.741 21.422-9.803 46.468-8.23 68.415-1.65 12.012 3.598 23.868 9.303 33.108 17.583z" stroke-width="1.005" stroke-dasharray="0 2.011"/><path data-name="Path 4148" d="M358.091 126.24a47.569 47.569 0 0112.18 17.053c3.87 9.408 4.28 19.433 4.636 29.767.127 4.044.253 8.132.601 12.248 1.726 20.24 9.584 37.203 3.102 55.104-6.575 18.16-14.633 22.324-10.146 42.32 3.426 15.275 11.714 27.06 5.302 43.63-7.125 18.408-26.712 31.05-45.382 38.377q-1.565.614-3.123 1.187c-22.867 8.453-40.483 9.973-62.14 23.898-11.561 7.441-21.277 15.024-30.09 20.053s-18.992 8.584-29.729 3.95c-12.837-5.548-19.869-21.874-23.816-35.084-.45-1.505-.842-3.006-1.244-4.48-3.024-11.118-4.174-20.902-8.914-31.283-9.009-19.73-30.631-37.13-51.028-52.451-17.114-12.853-36.036-25.114-45.013-44.692-9.05-19.85-2.462-48.575 18.153-57.734 11.369-5.053 23.374-3.886 35.22-.255 19.45 5.967 39.34 16.401 59.133 9.359a40.443 40.443 0 009.41-4.811c16.998-11.709 23.27-34.474 34.832-51.83 8.39-12.593 19.891-23.064 33.803-29.15 20.131-8.784 43.36-8.042 63.674-1.887 11.206 3.402 22.034 8.863 30.579 16.71z" stroke-width="1.006" stroke-dasharray="0 2.012"/><path data-name="Path 4149" d="M351.044 132.215a51 51 0 0111.215 15.217c3.966 8.29 5.515 17.301 6.366 26.643.322 3.633.546 7.317.782 11.026 1.164 18.2 3.038 35.193-4.515 51.177-8.712 18.432-16.74 21.836-11.025 42.606 4.285 15.571 14.263 27.2 8.722 44.828-5.737 18.253-23.292 32.493-41.655 38.577q-1.543.51-3.087.955c-22.667 6.552-43.827 2.812-64.537 16.075-10.936 7.006-19.012 16.34-27.269 23.624s-18.894 13.55-30.041 10.53c-13.376-3.588-20.328-19.633-22.265-33.293a96.828 96.828 0 01-.533-4.724c-1.1-11.827.01-23.054-3.024-34.389-5.809-21.713-26.15-38.882-45.898-53.079-18.085-13-38.144-25.298-47.729-45.552-9.618-20.39-2.63-50.988 19.36-59.483 11.259-4.352 22.616-2.386 33.836 1.66 18.434 6.649 36.957 17.772 56.132 11.665a38.476 38.476 0 009.133-4.305c16.374-10.512 24.168-31.897 36.282-47.92a79.161 79.161 0 0132.769-25.552c18.844-7.766 40.256-7.852 58.927-2.125a70.713 70.713 0 0128.054 15.84z" stroke-width="1.007" stroke-dasharray="0 2.013"/><path data-name="Path 4150" d="M362.346 175.098a85.771 85.771 0 01-11.174 57.046c-11.103 18.423-18.86 21.363-11.9 42.896 5.133 15.877 16.697 27.345 12.144 46.031-4.42 18.134-19.875 33.934-37.932 38.776-23.262 6.237-49.322-4.203-69.99 8.973-10.305 6.568-16.748 17.65-24.44 27.194s-18.79 18.488-30.359 17.109c-13.905-1.656-20.757-17.362-20.712-31.5s4.563-28.523 3.045-42.453c-2.578-23.664-21.678-40.607-40.762-53.71s-40.252-25.482-50.445-46.41-2.805-53.518 20.561-61.23c29.526-9.746 55.737 25.861 85.588 17.55 21.47-5.977 31.696-30.613 46.59-47.81 28.34-32.727 82.906-37.313 111.437-9.371 10.016 9.816 16.08 22.857 18.35 36.909z" stroke-width="1.007" stroke-dasharray="0 2.015"/></g></svg>