<svg xmlns="http://www.w3.org/2000/svg" width="544.736" height="549.54" viewBox="0 0 544.736 549.54">
  <g id="Group_1189" data-name="Group 1189" transform="translate(225.22 -6814.357)">
    <g id="illustration" transform="matrix(0.966, -0.259, 0.259, 0.966, -224.604, 6929.431)" opacity="0.2">
      <path id="Path_4139" data-name="Path 4139" d="M1990.119,947.988c8.2,11.167,13,23.765,11.459,37.78-3.005,27.44-30.124,47.785-32.56,75.281-3.454,39.029,43.177,66.817,45.795,105.912,1.845,27.6-20.023,52.338-45.589,62.9-28.794,11.9-63.875,1.543-89.875,17.175-30.418,18.292-29.29,69.194-63.525,80.59-19.58,6.519-41.071-7.686-50.479-26.054s-10.021-39.78-11.665-60.35c-2.137-26.7-3.513-49.087-30.028-63.464-18.206-9.872-39.355-12.5-58.94-19.246a147.507,147.507,0,0,1-81.792-70.367c-13.527-25.887-16.38-63.024,7.613-79.682,14.356-9.965,33.674-8.979,50.581-4.548,32.211,8.444,67.632,23.9,100.054,5.324,27.68-15.86,28.8-52.515,43.563-78.4,12.742-22.344,32.66-41.816,57.563-48.253,35.293-9.124,71.4,9.06,102.677,27.783C1961.445,920.232,1978.947,932.783,1990.119,947.988Z" transform="translate(-1572.601 -880.155)" fill="none" stroke="#020305" stroke-linecap="round" stroke-linejoin="round" stroke-width="1" stroke-dasharray="0 2"/>
      <path id="Path_4140" data-name="Path 4140" d="M1982.749,947.733c7.721,10.6,12.269,22.526,11,35.764-1.764,18.529-14.833,33.813-23.065,50.518-3.3,6.69-5.824,13.608-6.523,21.059-3.471,36.912,39.562,63.532,39.451,100.144-.042,13.891-5.716,25.916-13.39,37.832a74.247,74.247,0,0,1-30.126,27.167c-25.364,12.249-57.254,4.853-82.128,16.062q-2.086.939-4.1,2.053c-29.739,16.508-30.668,61.413-63.822,72.413-18.86,6.261-39.225-5.834-48.678-21.874s-11.194-34.981-13.672-54.074c-2.941-22.477-4.416-42.741-22.2-57.1a59.146,59.146,0,0,0-6.043-4.278c-16.184-10.056-34.834-13.439-52.448-20.723-31.365-12.968-59.5-38.521-76.669-69.643-7.075-12.823-12.414-27.8-12.718-42.554-.292-16.145,6.008-31.674,19.548-40.04,14.3-8.834,32.552-7.726,48.746-3.057,26.5,7.642,55.012,20.369,82.631,12.735a61.673,61.673,0,0,0,13.532-5.544c26.765-14.865,29.135-49.686,43.95-74.251,12.635-20.951,31.832-39.071,55.635-45.047,33.784-8.471,68.351,8.437,98.155,26.326C1955.564,921.076,1972.129,933.129,1982.749,947.733Z" transform="translate(-1573.582 -875.955)" fill="none" stroke="#020305" stroke-linecap="round" stroke-linejoin="round" stroke-width="1.001" stroke-dasharray="0 2.001"/>
      <path id="Path_4141" data-name="Path 4141" d="M1975.313,947.481c7.24,10.027,11.545,21.287,10.547,33.745-1.382,17.475-13.091,32.071-20.585,47.947a60.645,60.645,0,0,0-6.033,19.923c-3.483,34.8,35.629,60.385,33.112,94.382-1.045,14.1-7.384,24.954-14.312,37.883-6.506,12.146-14.705,22.276-27.131,29.209-23.468,13.091-54.327,7.129-78.585,17.217q-2.032.846-4,1.84c-29.054,14.724-32.045,53.63-64.118,64.236-18.14,6-37.376-3.979-46.875-17.693s-12.367-30.185-15.679-47.8c-3.947-20.747-5.588-40.623-21.164-54.967a56.12,56.12,0,0,0-5.292-4.325c-14.16-10.238-30.317-14.379-45.957-22.2-27.908-13.949-54.357-39.292-71.549-68.922-7.758-13.37-14.4-28.519-15.115-44.085-.707-16.817,6.653-33.463,21.164-41.419,14.173-7.767,31.431-6.472,46.914-1.565,25.337,8.037,52.353,21.076,79.135,14.187a58.632,58.632,0,0,0,13.135-5.127c25.85-13.871,29.466-46.862,44.338-70.1,12.519-19.557,31-36.328,53.7-41.841,32.278-7.821,65.3,7.816,93.634,24.869C1949.62,921.92,1965.247,933.473,1975.313,947.481Z" transform="translate(-1574.499 -871.755)" fill="none" stroke="#020305" stroke-linecap="round" stroke-linejoin="round" stroke-width="1.001" stroke-dasharray="0 2.003"/>
      <path id="Path_4142" data-name="Path 4142" d="M1967.826,947.226c6.756,9.457,10.821,20.051,10.09,31.728-1,16.42-11.346,30.33-18.108,45.378a61.662,61.662,0,0,0-5.54,18.787c-3.5,32.685,31.353,57.331,26.773,88.617-2.1,14.374-9.077,23.963-15.232,37.932-5.586,12.678-11.889,23.426-24.14,31.252-21.6,13.795-51.4,9.408-75.038,18.375q-1.98.751-3.908,1.626c-28.369,12.941-33.419,45.847-64.416,56.057-17.418,5.743-35.526-2.125-45.069-13.513s-13.542-25.387-17.687-41.529c-4.953-19.021-6.761-38.521-20.129-52.834a55.659,55.659,0,0,0-4.543-4.374c-12.166-10.387-25.8-15.323-39.463-23.672-24.459-14.943-49.293-40.025-66.427-68.2-8.462-13.915-16.425-29.243-17.514-45.621-1.16-17.484,7.25-35.283,22.781-42.795,13.986-6.763,30.31-5.218,45.081-.073,24.179,8.432,49.694,21.785,75.642,15.64a55.767,55.767,0,0,0,12.735-4.71c24.938-12.877,29.785-44.038,44.728-65.949,12.389-18.169,30.167-33.583,51.773-38.634,30.769-7.171,62.254,7.193,89.113,23.411C1943.622,922.765,1958.315,933.819,1967.826,947.226Z" transform="translate(-1575.365 -867.556)" fill="none" stroke="#020305" stroke-linecap="round" stroke-linejoin="round" stroke-width="1.002" stroke-dasharray="0 2.004"/>
      <path id="Path_4143" data-name="Path 4143" d="M1960.287,946.974c6.253,8.9,10.1,18.809,9.632,29.709-.613,15.365-9.6,28.588-15.627,42.807a63.618,63.618,0,0,0-5.049,17.654c-3.508,30.57,26.728,54.325,20.431,82.849-3.246,14.707-10.8,22.948-16.153,37.987-4.693,13.184-9.074,24.52-21.145,33.3-19.768,14.366-48.474,11.682-71.493,19.53q-1.932.656-3.81,1.411c-27.691,11.157-34.8,38.062-64.712,47.88a44.346,44.346,0,0,1-43.269-9.332c-9.587-9.062-14.682-20.6-19.694-35.253-5.923-17.308-7.937-36.436-19.1-50.7a56.891,56.891,0,0,0-3.79-4.421c-10.154-10.563-21.292-16.28-32.972-25.143-21.017-15.959-44.3-40.727-61.307-67.48-9.185-14.445-18.415-29.964-19.911-47.154-1.58-18.152,7.8-37.145,24.4-44.171,13.753-5.822,29.189-3.965,43.249,1.418,23.021,8.827,47.037,22.491,72.148,17.092a52.763,52.763,0,0,0,12.333-4.3c24.025-11.879,30.1-41.215,45.118-61.8,12.251-16.783,29.338-30.84,49.845-35.428,29.258-6.521,59.2,6.572,84.588,21.954C1937.572,923.612,1951.3,934.185,1960.287,946.974Z" transform="translate(-1576.177 -863.356)" fill="none" stroke="#020305" stroke-linecap="round" stroke-linejoin="round" stroke-width="1.003" stroke-dasharray="0 2.005"/>
      <path id="Path_4144" data-name="Path 4144" d="M1951.811,946.72c5.771,8.334,9.372,17.573,9.176,27.693-.231,14.31-7.863,26.846-13.147,40.236a67.046,67.046,0,0,0-4.558,16.52c-3.52,28.453,21.778,51.315,14.092,77.084-4.494,15.063-12.555,21.915-17.074,38.038-3.834,13.677-6.285,25.558-18.152,35.337-18,14.828-45.544,13.961-67.948,20.686-1.251.378-2.49.773-3.712,1.2-27.005,9.374-36.173,30.281-65.009,39.7-15.975,5.225-31.831,1.584-41.465-5.15s-15.853-15.809-21.7-28.98c-6.923-15.583-9.1-34.37-18.061-48.572-.955-1.513-1.94-3.015-3.04-4.465-8.145-10.748-16.785-17.251-26.478-26.62-17.583-16.993-39.355-41.4-56.187-66.758-9.933-14.965-20.4-30.686-22.31-48.685-1.992-18.823,8.322-39.066,26.014-45.547,13.486-4.943,28.068-2.713,41.414,2.907,21.868,9.222,44.379,23.2,68.657,18.542a49.959,49.959,0,0,0,11.932-3.876c23.111-10.885,30.392-38.4,45.509-57.644,12.1-15.4,28.5-28.1,47.912-32.221,27.751-5.871,56.155,5.949,80.07,20.495C1930.588,924.457,1943.374,934.535,1951.811,946.72Z" transform="translate(-1576.055 -859.157)" fill="none" stroke="#020305" stroke-linecap="round" stroke-linejoin="round" stroke-width="1.003" stroke-dasharray="0 2.007"/>
      <path id="Path_4145" data-name="Path 4145" d="M1943.1,946.468c5.284,7.762,8.645,16.334,8.717,25.673.152,13.255-6.121,25.1-10.667,37.665a73.105,73.105,0,0,0-4.065,15.387c-3.538,26.338,16.535,48.261,7.747,71.317-5.871,15.408-14.347,20.877-17.994,38.089-3,14.165-3.535,26.542-15.159,37.38-16.29,15.193-42.618,16.24-64.4,21.844-1.216.314-2.423.638-3.616.981-26.321,7.593-37.55,22.5-65.306,31.524-15.254,4.968-29.983,3.44-39.662-.969s-17.025-11.015-23.708-22.7c-7.927-13.864-10.255-32.329-17.026-46.443-.731-1.526-1.464-3.039-2.291-4.512-6.128-10.934-12.269-18.237-19.985-28.094-14.136-18.061-34.456-42.035-51.067-66.035-10.7-15.47-22.386-31.409-24.707-50.221-2.4-19.494,8.813-41.053,27.631-46.923,13.2-4.119,26.947-1.46,39.581,4.4,20.711,9.617,41.721,23.9,65.164,19.994a47.432,47.432,0,0,0,11.532-3.459c22.195-9.891,30.668-35.594,45.9-53.491,11.937-14.033,27.675-25.354,45.984-29.017,26.242-5.221,53.106,5.328,75.545,19.037C1923.362,925.3,1935.206,934.881,1943.1,946.468Z" transform="translate(-1575.691 -854.958)" fill="none" stroke="#020305" stroke-linecap="round" stroke-linejoin="round" stroke-width="1.004" stroke-dasharray="0 2.008"/>
      <path id="Path_4146" data-name="Path 4146" d="M1934.365,946.214c4.8,7.193,7.9,15.095,8.26,23.659.51,12.2-4.376,23.36-8.186,35.091a85.215,85.215,0,0,0-3.574,14.254c-3.55,24.223,11.055,45.118,1.408,65.551-7.406,15.691-16.172,19.837-18.917,38.141-2.2,14.651-.841,27.466-12.163,39.421-14.663,15.485-39.691,18.517-60.856,23-1.185.25-2.358.5-3.521.765-25.636,5.809-38.926,14.717-65.6,23.348-14.535,4.708-28.136,5.292-37.859,3.211s-18.2-6.221-25.718-16.432c-8.935-12.138-11.38-30.305-15.99-44.311-.508-1.541-.991-3.066-1.541-4.558a193.263,193.263,0,0,0-13.493-29.569c-10.667-19.16-29.6-42.647-45.945-65.313-11.506-15.954-24.371-32.133-27.106-51.752-2.812-20.163,9.281-43.124,29.248-48.3,12.894-3.346,25.823-.209,37.748,5.89,19.552,10.012,39.063,24.611,61.67,21.447a44.956,44.956,0,0,0,11.133-3.042c21.28-8.9,30.931-32.8,46.284-49.34,11.761-12.671,26.846-22.612,44.053-25.811,24.736-4.571,50.059,4.705,71.027,17.58C1916.12,926.146,1927.03,935.228,1934.365,946.214Z" transform="translate(-1575.313 -850.759)" fill="none" stroke="#020305" stroke-linecap="round" stroke-linejoin="round" stroke-width="1.005" stroke-dasharray="0 2.009"/>
      <path id="Path_4147" data-name="Path 4147" d="M1925.6,945.962a46.282,46.282,0,0,1,7.8,21.64c.893,11.145-2.635,21.618-5.709,32.52a114.272,114.272,0,0,0-3.081,13.118c-3.562,22.111,5.395,41.848-4.931,59.789-9.129,15.855-18.029,18.8-19.837,38.19-1.413,15.141,1.774,28.34-9.173,41.467-13.112,15.723-36.762,20.794-57.311,24.157q-1.722.28-3.419.552c-24.958,4.023-40.3,6.93-65.9,15.168-13.814,4.45-26.287,7.146-36.056,7.392s-19.383-1.426-27.724-10.159c-9.948-10.411-12.475-28.288-14.955-42.179-.277-1.555-.512-3.094-.79-4.6-2.083-11.324-3.194-20.254-7-31.044-7.154-20.274-24.771-43.231-40.824-64.592-12.333-16.412-26.316-32.861-29.5-53.285-3.184-20.84,9.739-45.282,30.865-49.678,12.588-2.62,24.7,1.045,35.916,7.382,18.394,10.407,36.4,25.32,58.177,22.9a42.591,42.591,0,0,0,10.733-2.627c20.365-7.9,31.174-30.021,46.673-45.187,11.567-11.322,26.012-19.866,42.123-22.6,23.227-3.92,47.009,4.085,66.5,16.123C1908.847,926.993,1918.82,935.573,1925.6,945.962Z" transform="translate(-1574.902 -846.56)" fill="none" stroke="#020305" stroke-linecap="round" stroke-linejoin="round" stroke-width="1.005" stroke-dasharray="0 2.011"/>
      <path id="Path_4148" data-name="Path 4148" d="M1916.792,945.708a47.563,47.563,0,0,1,7.348,19.624c1.3,10.088-.9,19.876-3.231,29.949-.925,3.938-1.862,7.919-2.591,11.984-3.574,19.994-.378,38.411-11.273,54.021-11.052,15.836-19.913,17.771-20.757,38.244-.647,15.64,4.306,29.167-6.177,43.509-11.648,15.934-33.838,23.071-53.766,25.313q-1.671.188-3.324.338c-24.273,2.242-41.679-.851-66.2,6.989-13.093,4.193-24.44,9-34.253,11.575s-20.565,3.373-29.734-3.883c-10.961-8.682-13.525-26.27-13.917-40.05-.044-1.57-.034-3.121-.041-4.649-.042-11.52,1.381-21.267-.508-32.52-3.592-21.388-19.969-43.791-35.7-63.869-13.2-16.844-28.3-33.585-31.9-54.818-3.6-21.513,10.2-47.549,32.481-51.057,12.288-1.936,23.58,2.3,34.08,8.873,17.239,10.8,33.747,26.027,54.686,24.351a40.438,40.438,0,0,0,10.333-2.21c19.449-6.906,31.4-27.268,47.061-41.036,11.364-9.99,25.183-17.124,40.195-19.4,21.716-3.27,43.957,3.461,61.982,14.666C1901.528,927.839,1910.571,935.917,1916.792,945.708Z" transform="translate(-1574.444 -842.361)" fill="none" stroke="#020305" stroke-linecap="round" stroke-linejoin="round" stroke-width="1.006" stroke-dasharray="0 2.012"/>
      <path id="Path_4149" data-name="Path 4149" d="M1907.866,945.457a50.994,50.994,0,0,1,6.891,17.6c1.683,9.033.846,18.137-.751,27.379-.63,3.592-1.367,7.208-2.1,10.851-3.589,17.879-6.179,34.775-17.612,48.256-13.187,15.546-21.822,16.754-21.68,38.293.106,16.148,6.732,29.962-3.184,45.552-10.267,16.143-30.909,25.35-50.219,26.471q-1.622.092-3.228.123c-23.588.458-43.055-8.633-66.491-1.187-12.375,3.935-22.592,10.858-32.452,15.755s-21.756,8.194-31.74,2.39c-11.989-6.928-14.548-24.224-12.882-37.918.191-1.583.444-3.148.709-4.7,2-11.707,5.979-22.263,5.984-33.995.012-22.474-15.188-44.323-30.583-63.147-14.1-17.239-30.288-34.309-34.3-56.352-4.009-22.182,10.662-49.924,34.1-52.434,12-1.288,22.459,3.552,32.248,10.365,16.081,11.194,31.09,26.733,51.19,25.8a38.471,38.471,0,0,0,9.935-1.793c18.535-5.912,31.6-24.547,47.449-36.885a79.152,79.152,0,0,1,38.263-16.192c20.21-2.62,40.911,2.841,57.46,13.206A70.705,70.705,0,0,1,1907.866,945.457Z" transform="translate(-1573.871 -838.163)" fill="none" stroke="#020305" stroke-linecap="round" stroke-linejoin="round" stroke-width="1.007" stroke-dasharray="0 2.013"/>
      <path id="Path_4150" data-name="Path 4150" d="M1906.833,985.6a85.761,85.761,0,0,1-25.563,52.2c-15.494,14.918-23.747,15.748-22.6,38.347.846,16.662,9.045,30.732-.191,47.6-8.965,16.368-27.982,27.626-46.674,27.626-24.081,0-46.546-16.83-69.918-9.457-11.653,3.675-20.745,12.71-30.646,19.935s-22.933,12.99-33.749,8.662c-13-5.2-15.551-22.143-11.847-35.785s11.793-26.365,13.934-40.211c3.638-23.522-10.421-44.831-25.46-62.426s-32.275-35.033-36.7-57.885,11.149-52.412,35.712-53.81c31.039-1.766,47.132,39.409,78.114,39.112,22.283-.213,38.538-21.358,57.375-34.11,35.845-24.268,89.73-14.568,110.049,19.805C1905.8,957.277,1908.28,971.442,1906.833,985.6Z" transform="translate(-1573.027 -833.965)" fill="none" stroke="#020305" stroke-linecap="round" stroke-linejoin="round" stroke-width="1.007" stroke-dasharray="0 2.015"/>
    </g>
  </g>
</svg>
